<?xml version="1.0" encoding="iso-8859-1"?>
<!-- Uploaded to: SVG Repo, www.svgrepo.com, Generator: SVG Repo Mixer Tools -->
<svg fill="#000000" height="800px" width="800px" version="1.1" id="Layer_1" xmlns="http://www.w3.org/2000/svg" xmlns:xlink="http://www.w3.org/1999/xlink" 
	 viewBox="0 0 512.068 512.068" xml:space="preserve">
<g transform="translate(0 -1)">
	<g>
		<path d="M394.061,4.277L228.582,107.701H106.701c-11.782,0-21.333,9.551-21.333,21.333v256c0,11.782,9.551,21.333,21.333,21.333
			h121.882l165.478,103.424c14.209,8.881,32.64-1.335,32.64-18.091V22.367C426.701,5.612,408.27-4.604,394.061,4.277z
			 M384.034,453.21l-128-80v-30.843c0-11.782-9.551-21.333-21.333-21.333c-11.782,0-21.333,9.551-21.333,21.333v21.333h-85.333
			V150.367h85.333v21.333c0,11.782,9.551,21.333,21.333,21.333c11.782,0,21.333-9.551,21.333-21.333v-30.843l128-80V453.21z"/>
	</g>
</g>
</svg>